<?xml version="1.0" encoding="utf-8"?>
<!-- Generator: Adobe Illustrator 25.2.3, SVG Export Plug-In . SVG Version: 6.00 Build 0)  -->
<svg version="1.1" xmlns="http://www.w3.org/2000/svg" xmlns:xlink="http://www.w3.org/1999/xlink" x="0px" y="0px"
	 viewBox="0 0 1366 768" style="enable-background:new 0 0 1366 768;" xml:space="preserve">
<style type="text/css">
	.st0{display:none;}
	.st1{display:inline;stroke:#000000;stroke-miterlimit:10;}
	.st2{display:inline;fill:#1B262C;stroke:#000000;stroke-miterlimit:10;}
	.st3{display:inline;fill:#FEA82F;}
	.st4{display:inline;}
	.st5{display:inline;fill:none;stroke:#000000;stroke-width:10;stroke-miterlimit:10;}
	.st6{display:inline;fill:none;stroke:#000000;stroke-miterlimit:10;}
	.st7{fill:#FEA82F;}
	.st8{fill:#1B262C;stroke:#1B262C;stroke-miterlimit:10;}
	.st9{fill:none;stroke:#1B262C;stroke-width:10;stroke-miterlimit:10;}
	.st10{fill:#1B262C;}
</style>
<g id="Capa_3" class="st0">
	<line class="st1" x1="390.5" y1="417.5" x2="1101.5" y2="417.5"/>
	<line class="st1" x1="395.74" y1="329.02" x2="1101.5" y2="329.02"/>
	<line class="st2" x1="147.23" y1="479.5" x2="1256.26" y2="479.5"/>
</g>
<g id="Capa_2" class="st0">
	<path class="st3" d="M311.73,289.5h-85.17c-4.83,0-7.53,5.59-4.52,9.37l42.68,53.62c3.1,3.89,4.79,8.72,4.79,13.7V370
		c0,4.86-1.61,9.58-4.58,13.43l-43.18,56.01c-2.93,3.8-0.22,9.3,4.57,9.3h88.71c3.23,0,5.83-2.64,5.77-5.87l-0.27-16.15
		c-0.03-1.56,0.57-3.08,1.69-4.18c3.78-3.71,13.62-10.53,27.9,0.06c1.48,1.1,2.37,2.83,2.37,4.67v39.56c0,0.41-0.04,0.82-0.13,1.23
		c-0.63,2.82-3.86,13.43-16.87,13.43H178.73c-2.88,0-5.71-0.81-8.13-2.39c-3.83-2.5-8.44-7.24-7.99-15.41
		c0.16-2.95,1.32-5.76,3.15-8.08c10.83-13.82,57.36-73.15,65.52-83.56c0.8-1.02,1.23-2.26,1.23-3.56l0,0c0-1.3-0.44-2.56-1.24-3.58
		l-64.04-80.99c-2.09-2.64-3.24-5.89-3.24-9.26c0.02-6.95,2.3-17.91,16.05-20.11c0.31-0.05,0.62-0.07,0.94-0.07l157.74,0
		c0,0,13.98-1.23,13.89,13.89c-0.08,12.86-0.02,32.49-0.01,38.06c0,1.05-0.27,2.09-0.82,2.99c-3.2,5.29-21.05,12.97-32.81,0.4
		c-0.82-0.88-1.46-2.62-1.46-3.82v-10.74C317.5,292.08,314.92,289.5,311.73,289.5z"/>
	<path class="st1" d="M559.5,340.15v66.09c0,1.91,0.82,3.75,2.31,4.93c1.7,1.35,4.25,2.23,7.32-0.22c1.51-1.2,2.36-3.05,2.36-4.97
		v-65.67c0-2.27-1.17-4.43-3.16-5.52c-1.48-0.81-3.36-1.26-5.38-0.32C560.79,335.48,559.5,337.76,559.5,340.15z"/>
	<path class="st4" d="M1094.65,315.71v-2.33c0-2.92-2.37-5.29-5.29-5.29h-90.07c-1.4,0-2.75,0.56-3.74,1.55l0,0
		c-0.99,0.99-1.55,2.34-1.55,3.74v93.27c0,2.92,2.37,5.29,5.29,5.29h2.43c2.92,0,5.29-2.37,5.29-5.29v-34.36
		c0-2.92,2.37-5.29,5.29-5.29h73.43c2.92,0,5.29-2.37,5.29-5.29v-2.43c0-2.92-2.37-5.29-5.29-5.29h-73.43
		c-2.92,0-5.29-2.37-5.29-5.29v-22.43c0-2.92,2.37-5.29,5.29-5.29h77.07C1092.28,321,1094.65,318.63,1094.65,315.71z"/>
	<circle class="st4" cx="565" cy="314" r="7"/>
	<path class="st1" d="M689.35,338.79v74.18c0,9.98-5.14,19.27-13.64,24.49c-16.47,10.14-45.8,20.3-76.48-7.01
		c-2.08-1.85-2.17-5.08-0.21-7.05l0,0c1.75-1.75,4.52-1.9,6.45-0.35c9.45,7.55,37.99,26.04,67.36,2.28
		c3.62-2.93,5.65-7.4,5.65-12.05v-74.48c0-2.67,2.17-4.84,4.84-4.84h1.17C687.19,333.94,689.35,336.11,689.35,338.79z"/>
	<circle class="st5" cx="640.5" cy="374.5" r="42.5"/>
	<path class="st1" d="M861.89,406.26c0.03,3.44-2.76,6.24-6.19,6.24h0c-3.42,0-6.19-2.77-6.19-6.19v-36.57
		c0-16.2-13.43-29.49-29.6-28.64c-0.51,0.03-1.02,0.07-1.53,0.12c-14.2,1.4-24.87,13.63-24.82,27.89l0.11,37.18
		c0.01,3.43-2.77,6.21-6.19,6.21h-2.69c-3.42,0-6.19-2.77-6.19-6.19v-37.46c0-12.75-8.56-24.12-20.96-27.09
		c-0.5-0.12-1-0.23-1.49-0.32c-17.51-3.39-33.67,10.38-33.67,28.21v36.66c0,3.42-2.77,6.19-6.19,6.19h-4.56
		c-3.42,0-6.19-2.77-6.19-6.19v-70.26c0-1.16,0.94-2.1,2.1-2.1h14.1c0.44,0,0.8,0.36,0.8,0.8v3.99c0,0.68,0.79,1.05,1.31,0.62
		c6.12-5.07,32.75-23.88,59.64,6.92c0.67,0.77,1.64,1.23,2.67,1.23l0,0c0.81,0,1.93-0.49,2.49-1.06
		c28.12-28.79,52.62-14.78,64.96-2.65c4.66,4.58,7.35,10.79,7.48,17.32L861.89,406.26z"/>
	<ellipse class="st5" cx="922.5" cy="386.5" rx="36.5" ry="25.5"/>
	<path class="st4" d="M965.62,410L965.62,410c3.17,0,5.73-2.57,5.73-5.73v-43.49c0-4.2-1.65-8.23-4.59-11.22
		c-10.68-10.86-39.02-33.16-75.02-10.02c-3.06,1.97-3.5,6.29-0.92,8.86l0.15,0.15c2.2,2.2,5.23,1.53,7.99,0.11
		c11.04-5.66,26.21-17.69,54.49,6.02c3.53,2.96,5.59,7.32,5.68,11.92l0.76,37.78C959.95,407.5,962.5,410,965.62,410z"/>
	<circle class="st3" cx="1163.5" cy="354.5" r="21.5"/>
	<circle class="st6" cx="1163" cy="413" r="22"/>
	<path class="st1" d="M498.1,351.5h-51.82c-8.12,0-15.25-5.95-16.13-14.02c-0.27-2.45,0-5.14,1.14-8.03c2.41-6.11,8.46-10,15.03-10
		l66.59,0c0,0,9.32,0.05,14.45,13.55c0.77,2.02,2.81,3.38,4.95,3.06c0.15-0.02,0.3-0.05,0.45-0.09c2.12-0.5,3.58-2.44,3.72-4.61
		c0.36-5.33-0.73-17.5-17-22.39c-3.47-1.04-7.09-1.48-10.72-1.48l-59.5,0c-11.87,0-23.16,5.87-29.42,15.96
		c-4.53,7.3-6.42,16.6,0.8,26.78c6.45,9.09,17.1,14.26,28.24,14.26h53.32c7.58,0,14.76,3.68,18.97,9.99c3.72,5.56,6,12.93,1.1,20.73
		c-3.19,5.08-7.93,7.88-13.84,9.34c-2.75,0.68-5.58,0.95-8.41,0.95h-53.4c-6.17,0-12.21-2.39-16.39-6.93
		c-1.67-1.82-3.2-4.07-4.31-6.86c-1-2.53-3.76-4.03-6.35-3.22c-1.98,0.62-3.74,2.5-3.74,7.22c0,0-1.62,12.25,15.33,18.94
		c4.97,1.96,10.3,2.85,15.65,2.85c10.63,0,35.04,0,50.86,0c13.48,0,26.42-5.9,34.8-16.46c7.89-9.95,11.69-23.51-4.38-38.12
		C519.9,355.48,509.16,351.5,498.1,351.5z"/>
</g>
<g id="Capa_2_copia">
	<path class="st7" d="M318.73,287.5h-85.17c-4.83,0-7.53,5.59-4.52,9.37l42.68,53.62c3.1,3.89,4.79,8.72,4.79,13.7V368
		c0,4.86-1.61,9.58-4.58,13.43l-43.18,56.01c-2.93,3.8-0.22,9.3,4.57,9.3h88.71c3.23,0,5.83-2.64,5.77-5.87l-0.27-16.15
		c-0.03-1.56,0.57-3.08,1.69-4.18c3.78-3.71,13.62-10.53,27.9,0.06c1.48,1.1,2.37,2.83,2.37,4.67v39.56c0,0.41-0.04,0.82-0.13,1.23
		c-0.63,2.82-3.86,13.43-16.87,13.43H189.73c-2.88,0-5.71-0.81-8.13-2.39c-3.83-2.5-8.44-7.24-7.99-15.41
		c0.16-2.95,1.32-5.76,3.15-8.08c10.83-13.82,60.36-73.15,68.52-83.56c0.8-1.02,1.23-2.26,1.23-3.56l0,0c0-1.3-0.44-2.56-1.24-3.58
		l-68.04-84.99c-2.09-2.64-3.24-5.89-3.24-9.26c0.02-6.95-0.7-13.91,13.05-16.11c0.31-0.05,0.62-0.07,0.94-0.07l157.74,0
		c0,0,13.98-1.23,13.89,13.89c-0.08,12.86-0.02,32.49-0.01,38.06c0,1.05-0.27,2.09-0.82,2.99c-3.2,5.29-21.05,12.97-32.81,0.4
		c-0.82-0.88-1.46-2.62-1.46-3.82v-10.74C324.5,290.08,321.92,287.5,318.73,287.5z"/>
	<path class="st8" d="M539.5,344.15v66.09c0,1.91,0.82,3.75,2.31,4.93c1.7,1.35,4.25,2.23,7.32-0.22c1.51-1.2,2.36-3.05,2.36-4.97
		v-65.67c0-2.27-1.17-4.43-3.16-5.52c-1.48-0.81-3.36-1.26-5.38-0.32C540.79,339.48,539.5,341.76,539.5,344.15z"/>
	<path class="st8" d="M1077.6,315.06v-2.47c0-3.09-2.51-5.6-5.6-5.6h-95.36c-1.48,0-2.91,0.59-3.96,1.64v0
		c-1.05,1.05-1.64,2.47-1.64,3.96v98.74c0,3.09,2.51,5.6,5.6,5.6h2.57c3.09,0,5.6-2.51,5.6-5.6v-36.38c0-3.09,2.51-7.6,5.6-7.6
		h77.74c3.09,0,5.6-2.51,5.6-5.6v-0.57c0-3.09-2.51-5.6-5.6-5.6h-77.74c-3.09,0-5.6-2.51-5.6-5.6v-23.74c0-3.09,2.51-5.6,5.6-5.6
		h81.6C1075.09,320.66,1077.6,318.15,1077.6,315.06z"/>
	<circle class="st8" cx="545" cy="318" r="7"/>
	<path class="st8" d="M664.21,344.02v65.85c0,8.86-4.56,17.1-12.11,21.75c-14.62,9-40.66,18.02-67.9-6.22
		c-1.85-1.64-1.93-4.51-0.18-6.26l0,0c1.55-1.55,4.01-1.68,5.73-0.31c8.39,6.7,33.73,23.12,59.8,2.02c3.22-2.6,5.02-6.57,5.02-10.7
		v-66.13c0-2.37,1.92-4.3,4.3-4.3h1.04C662.28,339.73,664.21,341.65,664.21,344.02z"/>
	<circle class="st9" cx="620.84" cy="375.73" r="37.73"/>
	<path class="st8" d="M841.89,410.63c0.03,3.23-2.76,5.87-6.19,5.87h0c-3.42,0-6.19-2.61-6.19-5.83v-34.39
		c0-15.23-13.43-27.73-29.6-26.93c-0.51,0.03-1.02,0.06-1.53,0.11c-14.2,1.31-24.87,12.82-24.82,26.23l0.11,34.96
		c0.01,3.22-2.77,5.84-6.19,5.84h-2.69c-3.42,0-6.19-2.61-6.19-5.83v-35.23c0-11.99-8.56-22.68-20.96-25.47
		c-0.5-0.11-1-0.21-1.49-0.3c-17.51-3.18-33.67,9.76-33.67,26.53v34.48c0,3.22-2.77,5.83-6.19,5.83h1.44
		c-3.42,0-6.19-2.61-6.19-5.83V344.6c0-1.09,0.94-1.97,2.1-1.97h8.1c0.44,0,0.8,0.34,0.8,0.75v3.75c0,0.64,0.79,0.99,1.31,0.58
		c6.12-4.77,32.75-22.46,59.64,6.5c0.67,0.73,1.64,1.16,2.67,1.16l0,0c0.81,0,1.93-0.46,2.49-1c28.12-27.07,52.62-13.9,64.96-2.49
		c4.66,4.31,7.35,10.15,7.48,16.29L841.89,410.63z"/>
	<ellipse class="st9" cx="903.14" cy="389.15" rx="32.71" ry="22.85"/>
	<path class="st8" d="M941.78,410.21L941.78,410.21c2.84,0,5.14-2.3,5.14-5.14V366.1c0-3.76-1.48-7.37-4.12-10.06
		c-9.57-9.73-34.97-29.71-67.22-8.98c-2.75,1.77-3.14,5.63-0.83,7.94l0.13,0.13c1.97,1.97,4.69,1.37,7.16,0.1
		c9.89-5.07,23.49-15.85,48.82,5.4c3.16,2.65,5.01,6.56,5.09,10.68l0.68,33.85C936.7,407.97,938.98,410.21,941.78,410.21z"/>
	<circle class="st7" cx="1142.5" cy="354.5" r="21.5"/>
	<path class="st8" d="M478.1,351.5h-51.82c-8.12,0-15.25-5.95-16.13-14.02c-0.27-2.45,0-5.14,1.14-8.03c2.41-6.11,8.46-10,15.03-10
		l66.59,0c0,0,9.32,0.05,14.45,13.55c0.77,2.02,2.81,3.38,4.95,3.06c0.15-0.02,0.3-0.05,0.45-0.09c2.12-0.5,3.58-2.44,3.72-4.61
		c0.36-5.33-0.73-17.5-17-22.39c-3.47-1.04-7.09-1.48-10.72-1.48l-59.5,0c-11.87,0-23.16,5.87-29.42,15.96
		c-4.53,7.3-6.42,16.6,0.8,26.78c6.45,9.09,17.1,14.26,28.24,14.26h53.32c7.58,0,14.76,3.68,18.97,9.99c3.72,5.56,6,12.93,1.1,20.73
		c-3.19,5.08-7.93,7.88-13.84,9.34c-2.75,0.68-5.58,0.95-8.41,0.95h-53.4c-6.17,0-12.21-2.39-16.39-6.93
		c-1.67-1.82-3.2-4.07-4.31-6.86c-1-2.53-3.76-4.03-6.35-3.22c-1.98,0.62-3.74,2.5-3.74,7.22c0,0-1.62,12.25,15.33,18.94
		c4.97,1.96,10.3,2.85,15.65,2.85c10.63,0,35.04,0,50.86,0c13.48,0,26.42-5.9,34.8-16.46c7.89-9.95,11.69-23.51-4.38-38.12
		C499.9,355.48,489.16,351.5,478.1,351.5z"/>
	<path class="st10" d="M1149.65,442.97c-13.78,19.94-48.46,38.89-40.37,25.62c10.72-17.59,14.06-22.81,8.97-46.97
		C1112,392,1145,379,1158.62,396.01C1171.13,411.64,1160,428,1149.65,442.97z"/>
</g>
</svg>
